<svg xmlns="http://www.w3.org/2000/svg" xmlns:xlink="http://www.w3.org/1999/xlink" width="500" zoomAndPan="magnify" viewBox="0 0 375 374.999991" height="500" preserveAspectRatio="xMidYMid meet" version="1.0"><defs><g/><clipPath id="ac00dfbd36"><path d="M 158 53 L 299 53 L 299 181 L 158 181 Z M 158 53 " clip-rule="nonzero"/></clipPath><clipPath id="34e26387e6"><path d="M 152.097656 60.726562 L 292.167969 44.578125 L 307.117188 174.21875 L 167.042969 190.367188 Z M 152.097656 60.726562 " clip-rule="nonzero"/></clipPath><clipPath id="17411c1dee"><path d="M 152.097656 60.726562 L 292.167969 44.578125 L 307.117188 174.21875 L 167.042969 190.367188 Z M 152.097656 60.726562 " clip-rule="nonzero"/></clipPath><clipPath id="88b15cd888"><path d="M 225 129 L 308 129 L 308 212 L 225 212 Z M 225 129 " clip-rule="nonzero"/></clipPath><clipPath id="b052255a2b"><path d="M 232.117188 124.371094 L 312.933594 140.953125 L 297.40625 216.625 L 216.589844 200.042969 Z M 232.117188 124.371094 " clip-rule="nonzero"/></clipPath><clipPath id="3282ee8ec9"><path d="M 232.117188 124.371094 L 312.933594 140.953125 L 297.40625 216.625 L 216.589844 200.042969 Z M 232.117188 124.371094 " clip-rule="nonzero"/></clipPath><clipPath id="10a62afa71"><path d="M 104 94 L 271.765625 94 L 271.765625 228 L 104 228 Z M 104 94 " clip-rule="nonzero"/></clipPath></defs><g clip-path="url(#ac00dfbd36)"><g clip-path="url(#34e26387e6)"><g clip-path="url(#17411c1dee)"><path fill="#e5f6cb" d="M 259.945312 179.75 C 268.183594 178.355469 276.554688 175.683594 282.453125 169.8125 C 287.222656 165.082031 289.933594 158.683594 292.039062 152.316406 C 298.136719 133.761719 299.886719 113.761719 297.046875 94.410156 C 295.839844 86.070312 293.648438 77.601562 288.53125 70.886719 C 279.308594 58.804688 262.855469 55.105469 247.710938 53.929688 C 233.421875 52.816406 219.019531 53.179688 204.789062 55.023438 C 195.875 56.171875 186.640625 58.050781 179.433594 63.464844 C 170.027344 70.554688 165.664062 82.335938 162.382812 93.628906 C 160.34375 100.597656 158.496094 107.789062 158.847656 115.050781 C 159.199219 122.3125 162.046875 129.773438 167.863281 134.132812 C 170.484375 136.105469 173.636719 137.40625 175.972656 139.730469 C 177.351562 141.113281 178.394531 142.777344 179.433594 144.402344 C 183.664062 151.179688 187.382812 159.878906 192.390625 165.996094 C 196.683594 171.21875 205.167969 173.730469 211.457031 175.847656 C 227.503906 181.300781 243.367188 181.660156 259.945312 179.75 Z M 259.945312 179.75 " fill-opacity="1" fill-rule="nonzero"/></g></g></g><g clip-path="url(#88b15cd888)"><g clip-path="url(#b052255a2b)"><g clip-path="url(#3282ee8ec9)"><path fill="#aabe88" d="M 270.582031 210.730469 C 275.441406 211.460938 280.617188 211.507812 284.992188 209.304688 C 288.527344 207.535156 291.21875 204.457031 293.5625 201.28125 C 300.378906 192.023438 305.03125 181.160156 306.996094 169.816406 C 307.851562 164.933594 308.179688 159.792969 306.550781 155.101562 C 303.613281 146.648438 295.089844 141.558594 286.835938 138.121094 C 279.050781 134.878906 270.929688 132.4375 262.632812 130.855469 C 257.4375 129.863281 251.925781 129.214844 246.902344 130.921875 C 240.339844 133.160156 235.738281 138.945312 231.828125 144.660156 C 229.410156 148.183594 227.058594 151.863281 225.917969 155.992188 C 224.78125 160.117188 225.003906 164.8125 227.457031 168.316406 C 228.5625 169.902344 230.085938 171.207031 230.96875 172.9375 C 231.484375 173.964844 231.761719 175.085938 232.042969 176.183594 C 233.164062 180.75 233.648438 186.296875 235.328125 190.636719 C 236.769531 194.347656 241.054688 197.308594 244.179688 199.648438 C 252.152344 205.640625 260.960938 208.757812 270.582031 210.730469 Z M 270.582031 210.730469 " fill-opacity="1" fill-rule="nonzero"/></g></g></g><path fill="#373534" d="M 113.164062 103.902344 C 112.988281 104.433594 112.808594 105.011719 112.675781 105.5 C 112.808594 105.144531 112.941406 104.746094 113.03125 104.347656 C 113.121094 104.214844 113.121094 104.035156 113.164062 103.902344 Z M 113.164062 103.902344 " fill-opacity="1" fill-rule="nonzero"/><g clip-path="url(#10a62afa71)"><path fill="#373534" d="M 125.925781 226.957031 C 125.394531 226.335938 125.261719 225.273438 125.261719 220.445312 C 125.261719 214.859375 125.21875 214.59375 124.199219 213.132812 C 123.179688 211.667969 123.089844 211.625 121.496094 211.847656 C 117.0625 212.554688 115.070312 212.554688 113.652344 211.800781 C 112.898438 211.402344 112.234375 210.871094 112.144531 210.605469 C 112.058594 210.339844 112.722656 209.632812 113.609375 209.054688 C 115.070312 208.082031 115.511719 207.992188 117.730469 208.167969 C 119.101562 208.300781 120.566406 208.523438 120.964844 208.699219 C 121.585938 208.964844 121.496094 208.613281 120.433594 206.664062 C 118.835938 203.738281 118.214844 203.25 116.621094 203.738281 C 113.652344 204.578125 109.488281 203.871094 107.980469 202.277344 L 107.183594 201.390625 L 108.203125 200.726562 C 109.753906 199.707031 113.519531 199.484375 115.425781 200.28125 C 116.265625 200.636719 117.0625 200.859375 117.152344 200.769531 C 117.242188 200.679688 116.664062 199.308594 115.867188 197.753906 C 114.628906 195.273438 114.316406 194.917969 113.5625 195.140625 C 113.074219 195.273438 111.4375 195.097656 109.929688 194.785156 C 107.714844 194.34375 106.871094 193.945312 105.765625 192.792969 C 104.523438 191.550781 104.433594 191.285156 104.878906 190.710938 C 105.320312 190.179688 106.074219 190.089844 108.957031 190.179688 C 110.90625 190.222656 112.457031 190.222656 112.367188 190.089844 C 112.324219 189.957031 111.65625 188.363281 110.949219 186.457031 C 109.753906 183.355469 109.441406 182.957031 107.9375 182.15625 C 104.878906 180.5625 103.015625 175.554688 104.835938 173.914062 C 105.542969 173.296875 105.675781 173.339844 107.757812 175.378906 C 109.886719 177.460938 111.792969 180.429688 111.613281 181.40625 C 111.570312 181.671875 111.746094 182.558594 112.011719 183.355469 L 112.542969 184.859375 L 114.539062 182.691406 C 116.710938 180.339844 117.816406 179.722656 118.703125 180.472656 C 119.414062 181.050781 119.457031 182.957031 118.835938 184.195312 C 118.613281 184.683594 117.507812 186.011719 116.398438 187.121094 L 114.40625 189.203125 L 115.335938 191.464844 C 116.132812 193.367188 116.355469 193.632812 116.664062 193.058594 C 118.96875 189.160156 120.964844 187.296875 121.984375 188.140625 C 123.269531 189.203125 121.363281 194.832031 118.925781 197.003906 C 118.214844 197.667969 118.214844 197.710938 119.015625 199.394531 L 119.855469 201.125 L 120.386719 199.085938 C 120.699219 197.886719 121.363281 196.558594 122.070312 195.851562 C 123.179688 194.742188 123.3125 194.699219 123.886719 195.320312 C 124.953125 196.382812 124.863281 201.390625 123.710938 203.695312 C 123.222656 204.710938 122.824219 205.820312 122.824219 206.175781 C 122.824219 207.015625 124.375 209.675781 124.863281 209.675781 C 125.085938 209.675781 125.261719 195.320312 125.304688 175.601562 L 125.394531 141.523438 L 126.589844 140.816406 C 127.257812 140.417969 128.140625 139.929688 128.585938 139.707031 C 129.027344 139.484375 130.09375 138.777344 130.976562 138.113281 C 131.863281 137.449219 133.015625 136.605469 133.59375 136.207031 C 134.125 135.808594 136.382812 134.035156 138.601562 132.308594 C 143.5625 128.363281 145.378906 126.945312 147.019531 125.792969 C 147.726562 125.304688 149.101562 124.285156 150.078125 123.535156 C 151.050781 122.78125 153.398438 121.097656 155.261719 119.855469 C 157.121094 118.570312 160.976562 115.777344 163.859375 113.652344 C 171.125 108.289062 171.878906 107.714844 173.828125 106.117188 C 174.800781 105.367188 177.769531 103.015625 180.472656 100.933594 C 183.175781 98.851562 185.96875 96.636719 186.722656 95.972656 L 188.097656 94.820312 L 189.382812 96.015625 C 190.089844 96.679688 191.152344 97.566406 191.730469 97.964844 C 192.304688 98.363281 195.097656 100.535156 197.890625 102.75 C 203.296875 107.003906 205.023438 108.335938 207.28125 109.929688 C 208.035156 110.460938 209.453125 111.523438 210.339844 112.234375 C 212.023438 113.5625 227.402344 124.640625 228.996094 125.703125 C 229.484375 126.015625 230.414062 126.769531 231.035156 127.34375 C 231.699219 127.921875 232.628906 128.671875 233.074219 128.984375 C 233.558594 129.292969 235.597656 130.933594 237.679688 132.574219 C 242.066406 136.074219 243.042969 136.828125 247.386719 139.75 L 250.621094 141.96875 L 250.707031 175.867188 C 250.753906 198.289062 250.929688 209.765625 251.195312 209.765625 C 251.417969 209.765625 251.992188 208.964844 252.4375 208.035156 L 253.277344 206.261719 L 252.304688 204.3125 C 251.109375 201.832031 250.929688 196.605469 252.039062 195.496094 C 252.660156 194.875 252.746094 194.875 253.589844 195.585938 C 254.695312 196.605469 255.40625 197.976562 255.761719 199.925781 L 256.027344 201.523438 L 256.78125 199.925781 C 257.753906 197.886719 257.753906 197.621094 256.734375 196.738281 C 255.316406 195.453125 254.296875 193.414062 253.765625 190.933594 C 253.144531 187.875 253.632812 187.210938 255.539062 188.539062 C 257 189.601562 259.128906 192.394531 259.128906 193.28125 C 259.128906 194.253906 260.015625 193.101562 260.945312 191.019531 L 261.699219 189.292969 L 259.660156 187.210938 C 257.265625 184.726562 256.734375 183.84375 256.734375 182.023438 C 256.734375 179.101562 258.773438 179.542969 261.785156 183.089844 L 263.335938 184.90625 L 263.871094 183.664062 C 264.136719 183 264.355469 182.070312 264.3125 181.582031 C 264.222656 180.386719 266.085938 177.550781 268.523438 175.199219 L 270.558594 173.25 L 271.269531 174.136719 C 271.667969 174.625 271.976562 175.601562 271.976562 176.308594 C 271.976562 178.125 269.808594 181.273438 267.679688 182.425781 C 266.75 182.957031 265.996094 183.574219 265.996094 183.886719 C 265.996094 184.195312 265.554688 185.394531 265.066406 186.542969 C 263.292969 190.578125 263.117188 190.3125 267.148438 190.179688 C 270.074219 190.089844 270.78125 190.179688 271.226562 190.710938 C 271.710938 191.285156 271.578125 191.550781 270.207031 192.835938 C 268.875 194.078125 268.167969 194.386719 265.820312 194.785156 C 264.269531 195.050781 262.671875 195.230469 262.230469 195.1875 C 261.652344 195.097656 261.121094 195.71875 260.101562 197.84375 C 259.347656 199.351562 258.816406 200.636719 258.90625 200.769531 C 258.996094 200.859375 259.792969 200.636719 260.632812 200.28125 C 262.539062 199.484375 266.304688 199.707031 267.855469 200.726562 L 268.875 201.390625 L 268.035156 202.320312 C 266.484375 203.960938 262.316406 204.625 259.261719 203.78125 C 258.109375 203.425781 257.796875 203.515625 257.046875 204.3125 C 256.203125 205.199219 254.296875 208.613281 254.519531 208.832031 C 254.5625 208.878906 255.226562 208.746094 255.980469 208.566406 C 258.464844 207.859375 260.855469 208.082031 262.496094 209.1875 C 263.335938 209.765625 263.957031 210.429688 263.871094 210.695312 C 263.78125 210.960938 263.027344 211.492188 262.183594 211.890625 C 260.632812 212.644531 259.082031 212.644531 254.210938 211.933594 C 252.660156 211.714844 252.570312 211.757812 251.726562 213.308594 C 250.929688 214.726562 250.839844 215.4375 250.839844 220.445312 C 250.839844 224.832031 250.707031 226.203125 250.222656 226.867188 L 249.601562 227.753906 L 188.097656 227.753906 C 128.984375 227.710938 126.546875 227.667969 125.925781 226.957031 Z M 248.757812 221.328125 C 248.847656 217.652344 248.847656 217.5625 248.136719 218.492188 C 247.738281 219.027344 246.1875 220.796875 244.683594 222.394531 L 241.890625 225.363281 L 248.625 225.097656 Z M 140.550781 220.796875 C 138.867188 215.257812 136.472656 203.78125 136.164062 199.617188 L 135.941406 196.558594 L 134.613281 196.292969 C 133.769531 196.117188 132.441406 195.273438 130.976562 193.902344 C 129.027344 192.082031 128.761719 191.640625 129.117188 191.019531 C 129.691406 190.089844 132.128906 190.222656 133.992188 191.332031 C 134.699219 191.773438 135.410156 192.082031 135.496094 192.082031 C 135.585938 192.082031 135.675781 190.488281 135.675781 188.539062 L 135.675781 184.992188 L 134.078125 184.285156 C 132.128906 183.441406 129.914062 180.917969 129.027344 178.570312 C 128.40625 176.929688 128.40625 176.796875 129.074219 176.042969 C 129.648438 175.378906 129.957031 175.332031 131.023438 175.6875 C 132.441406 176.132812 134.878906 178.304688 134.878906 179.011719 C 134.878906 179.277344 135.144531 179.675781 135.410156 179.941406 C 135.851562 180.339844 136.03125 179.941406 136.25 177.816406 C 136.5625 174.980469 136.738281 175.421875 133.371094 171.167969 C 131.820312 169.21875 131.554688 166.605469 132.839844 165.453125 C 133.546875 164.832031 133.679688 164.789062 134.832031 165.40625 C 135.496094 165.761719 136.339844 166.472656 136.695312 167.046875 C 137.050781 167.578125 137.492188 168.023438 137.714844 168.023438 C 138.199219 168.023438 138.15625 166.117188 137.667969 165.808594 C 135.585938 164.523438 134.300781 158.40625 135.71875 156.679688 L 136.429688 155.792969 L 137.449219 156.765625 C 138.023438 157.300781 138.6875 158.316406 138.953125 159.070312 C 139.21875 159.824219 139.53125 160.402344 139.664062 160.402344 C 139.796875 160.402344 140.238281 159.425781 140.636719 158.230469 C 141.347656 156.101562 141.347656 156.101562 140.460938 154.863281 C 139.21875 153.179688 138.734375 149.011719 139.664062 147.859375 C 140.503906 146.796875 141.480469 147.152344 142.367188 148.792969 C 143.828125 151.449219 143.871094 151.449219 144.9375 149.542969 C 145.46875 148.570312 146.175781 147.019531 146.441406 146.089844 C 147.152344 143.828125 149.410156 141.703125 151.496094 141.390625 C 153.84375 140.992188 154.375 141.746094 153.445312 144.136719 C 152.648438 146.222656 150.429688 148.523438 148.394531 149.367188 C 147.328125 149.808594 146.574219 150.5625 145.734375 152.070312 C 145.070312 153.222656 144.582031 154.242188 144.671875 154.285156 C 144.757812 154.375 145.601562 153.929688 146.53125 153.3125 C 148.660156 151.980469 152.378906 151.496094 153.222656 152.46875 C 153.664062 153 153.488281 153.3125 152.335938 154.640625 C 151.582031 155.480469 150.03125 156.589844 148.925781 157.121094 C 147.019531 158.007812 146.839844 158.050781 145.113281 157.476562 L 143.296875 156.855469 L 142.632812 158.894531 C 142.277344 160.003906 141.878906 161.152344 141.789062 161.421875 C 141.703125 161.6875 142.808594 161.285156 144.273438 160.535156 C 146.308594 159.46875 147.109375 159.25 147.683594 159.515625 C 148.570312 160.003906 149.011719 161.019531 148.613281 161.730469 C 148.125 162.617188 144.050781 165.496094 142.101562 166.339844 C 140.285156 167.136719 140.238281 167.179688 139.796875 169.660156 C 139.132812 173.296875 139.175781 173.339844 140.949219 171.746094 C 142.855469 170.015625 145.601562 169.660156 146.929688 170.902344 C 147.417969 171.390625 147.328125 171.699219 146.308594 173.164062 C 145.023438 175.023438 140.902344 177.902344 139.53125 177.902344 C 138.511719 177.902344 138.15625 179.101562 138.15625 182.203125 L 138.15625 183.976562 L 140.019531 182.335938 C 142.765625 179.941406 145.777344 179.675781 145.777344 181.890625 C 145.777344 183.355469 142.675781 186.589844 140.195312 187.742188 C 138.113281 188.714844 137.847656 188.980469 137.933594 189.867188 C 137.980469 190.398438 138.066406 191.863281 138.113281 193.015625 L 138.15625 195.140625 L 139.664062 193.414062 C 140.503906 192.484375 141.789062 191.417969 142.542969 191.109375 C 143.785156 190.578125 143.960938 190.621094 144.671875 191.332031 C 145.246094 191.90625 145.378906 192.394531 145.203125 193.191406 C 144.847656 194.566406 141.304688 198.332031 139.707031 198.996094 C 138.511719 199.484375 138.511719 199.527344 138.734375 201.523438 C 139.308594 205.910156 141.480469 215.789062 142.855469 220.265625 L 144.316406 224.964844 L 147.242188 224.964844 C 149.765625 224.964844 150.164062 224.875 150.164062 224.253906 C 150.164062 223.855469 149.8125 220.753906 149.367188 217.339844 C 148.347656 209.632812 148.347656 206.664062 149.234375 205.6875 C 149.765625 205.066406 150.519531 204.980469 153.621094 204.980469 C 155.660156 204.980469 157.433594 204.800781 157.566406 204.578125 C 157.699219 204.359375 156.902344 203.207031 155.792969 202.007812 C 153.664062 199.660156 152.113281 196.957031 150.960938 193.546875 C 150.296875 191.550781 150.296875 191.417969 150.960938 190.84375 C 151.363281 190.488281 151.894531 190.222656 152.160156 190.222656 C 153.222656 190.222656 155.082031 191.550781 156.234375 193.101562 C 156.902344 193.988281 157.433594 194.652344 157.433594 194.476562 C 157.699219 191.730469 157.433594 189.691406 156.679688 188.894531 C 156.234375 188.40625 155.703125 187.429688 155.570312 186.722656 C 155.351562 185.660156 155.214844 185.527344 154.597656 185.835938 C 153.488281 186.410156 152.425781 186.277344 151.273438 185.394531 C 149.988281 184.375 149.945312 183.574219 151.050781 182.378906 L 151.894531 181.492188 L 150.828125 180.207031 C 149.5 178.613281 149.632812 177.503906 151.316406 176.53125 C 152.378906 175.910156 152.824219 175.867188 153.796875 176.175781 C 154.996094 176.574219 154.996094 176.574219 154.996094 175.246094 C 154.996094 173.78125 156.234375 172.230469 157.386719 172.230469 C 158.097656 172.230469 159.515625 173.648438 159.914062 174.757812 C 160.136719 175.332031 160.3125 175.378906 160.933594 175.066406 C 162.441406 174.269531 164.433594 174.582031 165.363281 175.6875 C 166.382812 177.019531 166.382812 177.503906 165.363281 178.4375 C 164.566406 179.144531 164.566406 179.1875 165.761719 180.429688 C 167.269531 181.980469 167.3125 183.089844 165.851562 184.328125 C 164.964844 185.082031 164.742188 185.527344 164.875 186.457031 C 165.007812 187.253906 164.789062 188.007812 164.167969 188.714844 C 163.191406 189.957031 162.351562 190.089844 161.066406 189.203125 C 159.824219 188.363281 159.738281 188.761719 159.871094 194.035156 C 159.957031 197.179688 160.089844 198.199219 160.355469 197.621094 C 161.730469 194.742188 164.167969 192.214844 165.542969 192.214844 C 168.730469 192.214844 164.921875 202.71875 161.199219 204.226562 C 160.621094 204.445312 161.15625 204.578125 162.882812 204.578125 C 165.277344 204.578125 167.84375 205.289062 168.289062 206.042969 C 168.378906 206.21875 168.15625 209.898438 167.757812 214.195312 C 167.359375 218.492188 167.003906 222.660156 167.003906 223.5 L 167.003906 225.007812 L 172.585938 225.007812 C 172.585938 225.007812 172.585938 180.429688 172.585938 170.8125 C 172.585938 170.28125 172.542969 167.757812 173.382812 165.808594 C 174.359375 163.589844 176.265625 161.953125 176.972656 161.285156 C 179.054688 159.292969 181.757812 157.917969 185.304688 157.34375 C 188.980469 156.722656 193.015625 157.34375 196.382812 158.984375 C 199.308594 160.402344 200.59375 162.085938 201.832031 163.546875 C 202.410156 164.210938 203.25 165.894531 203.429688 166.78125 C 203.648438 167.84375 203.78125 170.195312 203.78125 171.480469 C 203.78125 181.050781 203.78125 225.007812 203.78125 225.007812 L 209.453125 225.007812 L 209.1875 221.683594 C 209.054688 219.867188 208.65625 215.703125 208.347656 212.46875 C 208.035156 209.1875 207.902344 206.351562 208.035156 206.128906 C 208.523438 205.332031 211.050781 204.625 213.488281 204.578125 C 215.257812 204.578125 215.746094 204.445312 215.171875 204.226562 C 211.847656 202.851562 208.125 193.902344 210.296875 192.484375 C 210.785156 192.171875 211.183594 192.128906 211.714844 192.484375 C 212.421875 192.925781 215.171875 196.160156 216.101562 197.667969 C 216.5 198.289062 216.589844 197.535156 216.589844 193.8125 C 216.589844 191.285156 216.5 189.070312 216.367188 188.9375 C 216.234375 188.804688 215.746094 188.9375 215.257812 189.246094 C 214.0625 190.089844 213.265625 189.957031 212.203125 188.847656 C 211.449219 188.050781 211.316406 187.5625 211.492188 186.457031 C 211.625 185.703125 211.535156 185.039062 211.359375 185.039062 C 210.652344 185.039062 209.367188 183.441406 209.367188 182.558594 C 209.367188 182.070312 209.898438 181.09375 210.5625 180.429688 C 211.757812 179.1875 211.757812 179.1875 210.960938 178.4375 C 209.941406 177.503906 209.941406 177.019531 210.960938 175.6875 C 211.847656 174.535156 213.886719 174.269531 215.347656 175.066406 C 215.835938 175.332031 216.144531 175.332031 216.144531 175.113281 C 216.144531 174.359375 218.226562 172.277344 218.9375 172.277344 C 219.957031 172.277344 221.328125 174.136719 221.328125 175.511719 C 221.328125 176.574219 221.417969 176.617188 222.347656 176.265625 C 223.765625 175.734375 223.898438 175.734375 225.273438 176.929688 C 226.78125 178.214844 226.824219 178.703125 225.449219 180.296875 L 224.386719 181.539062 L 225.230469 182.425781 C 226.382812 183.621094 226.292969 184.460938 225.007812 185.480469 C 223.945312 186.324219 222.835938 186.367188 221.242188 185.703125 C 220.710938 185.480469 220.578125 185.660156 220.621094 186.679688 C 220.664062 187.519531 220.3125 188.273438 219.601562 189.027344 C 218.671875 190 218.539062 190.445312 218.539062 192.925781 C 218.539062 195.71875 218.539062 195.71875 219.203125 194.519531 C 220.886719 191.332031 223.855469 189.558594 225.316406 190.933594 C 226.027344 191.597656 226.027344 191.683594 225.363281 193.679688 C 224.164062 197.179688 222.613281 199.882812 220.53125 202.007812 C 219.425781 203.160156 218.539062 204.3125 218.539062 204.578125 C 218.539062 204.980469 219.511719 205.113281 222.527344 205.113281 C 226.203125 205.113281 226.558594 205.199219 227.132812 205.996094 C 227.933594 207.148438 227.933594 209.234375 226.957031 216.941406 C 225.851562 225.980469 225.628906 225.140625 229.039062 225.097656 L 231.921875 225.097656 L 233.25 221.019531 C 234.402344 217.339844 236.882812 206.261719 237.546875 201.476562 C 237.8125 199.792969 237.726562 199.574219 236.925781 199.351562 C 236.441406 199.171875 235.109375 198.242188 234.046875 197.222656 C 231.121094 194.476562 230.191406 192.261719 231.566406 191.152344 C 232.496094 190.355469 234.492188 191.332031 236.484375 193.5 L 238.167969 195.363281 L 238.167969 188.804688 L 236.261719 187.960938 C 234.003906 186.945312 230.546875 183.441406 230.546875 182.15625 C 230.546875 179.765625 233.25 179.898438 236.21875 182.378906 L 238.125 184.019531 L 238.078125 182.289062 C 237.992188 179.054688 237.636719 178.257812 236.21875 177.859375 C 234.3125 177.371094 231.476562 175.246094 230.058594 173.25 C 228.996094 171.789062 228.90625 171.480469 229.394531 170.902344 C 229.792969 170.414062 230.414062 170.28125 232.054688 170.414062 C 233.824219 170.546875 234.445312 170.8125 235.597656 171.964844 L 237.015625 173.339844 L 236.707031 171.347656 C 236.175781 167.667969 235.996094 167.402344 233.914062 166.339844 C 230.988281 164.875 227.355469 162.039062 227.355469 161.199219 C 227.355469 159.25 229.351562 159.070312 232.363281 160.753906 C 233.558594 161.421875 234.445312 161.730469 234.359375 161.464844 C 234.269531 161.199219 233.914062 160.046875 233.558594 158.894531 L 232.894531 156.855469 L 231.433594 157.386719 C 230.636719 157.699219 229.703125 157.917969 229.4375 157.917969 C 227.222656 158.007812 222.039062 153.664062 222.96875 152.511719 C 223.8125 151.496094 226.78125 151.804688 229.21875 153.179688 C 230.414062 153.84375 231.476562 154.332031 231.566406 154.285156 C 231.609375 154.195312 231.167969 153.222656 230.503906 152.070312 C 229.617188 150.519531 228.863281 149.808594 227.621094 149.234375 C 224.433594 147.816406 221.328125 143.207031 222.570312 141.746094 C 223.367188 140.769531 226.070312 141.390625 227.667969 142.941406 C 229.085938 144.269531 230.148438 146.355469 230.148438 147.773438 C 230.148438 148.257812 230.503906 148.96875 230.945312 149.367188 C 231.390625 149.765625 231.832031 150.429688 231.964844 150.875 C 232.1875 151.539062 232.320312 151.40625 233.027344 150.121094 C 234.046875 148.214844 234.933594 147.195312 235.554688 147.195312 C 237.328125 147.195312 237.503906 151.007812 235.910156 154.332031 L 234.890625 156.457031 L 235.597656 158.449219 C 235.996094 159.558594 236.441406 160.445312 236.574219 160.445312 C 236.707031 160.445312 237.015625 159.824219 237.28125 159.117188 C 237.546875 158.40625 238.210938 157.386719 238.746094 156.855469 C 240.296875 155.394531 240.960938 156.28125 240.960938 159.648438 C 240.960938 162.085938 240.828125 162.570312 239.542969 164.433594 C 238.746094 165.585938 238.125 167.003906 238.167969 167.578125 L 238.167969 168.644531 L 239.453125 167.179688 C 240.164062 166.382812 241.179688 165.496094 241.714844 165.230469 C 242.554688 164.789062 242.777344 164.832031 243.398438 165.628906 C 244.238281 166.648438 244.328125 168.644531 243.617188 169.882812 C 243.351562 170.371094 242.332031 171.746094 241.402344 173.03125 L 239.675781 175.332031 L 239.984375 177.992188 C 240.207031 180.207031 240.339844 180.519531 240.738281 179.898438 C 241.800781 178.082031 243.839844 176.175781 245.167969 175.777344 C 246.367188 175.421875 246.675781 175.46875 247.253906 176.085938 C 247.828125 176.707031 247.828125 177.019531 247.429688 178.257812 C 246.71875 180.429688 244.0625 183.488281 242.246094 184.328125 L 240.605469 185.039062 L 240.605469 192.082031 L 242.113281 191.332031 C 244.238281 190.222656 246.585938 190.089844 247.164062 191.019531 C 247.519531 191.640625 247.253906 192.082031 245.300781 193.902344 C 243.839844 195.273438 242.511719 196.160156 241.667969 196.292969 L 240.339844 196.558594 L 240.074219 199.484375 C 239.585938 205.023438 236.128906 220.488281 234.402344 224.609375 C 234.136719 225.230469 234.402344 225.316406 236.707031 225.316406 L 239.277344 225.316406 L 242.820312 221.773438 C 244.769531 219.824219 246.5 217.875 246.71875 217.472656 C 246.941406 217.074219 247.429688 216.367188 247.828125 215.921875 C 249.289062 214.238281 249.203125 213.53125 246.988281 211.269531 C 244.992188 209.234375 243.441406 206.617188 243.441406 205.246094 C 243.441406 204.890625 243.707031 204.359375 244.0625 204.09375 C 244.59375 203.648438 244.902344 203.695312 245.96875 204.3125 C 246.675781 204.710938 247.652344 205.421875 248.183594 205.910156 L 249.15625 206.75 L 248.890625 174.980469 C 248.714844 150.785156 248.539062 143.074219 248.136719 142.632812 C 247.871094 142.320312 246.453125 141.257812 245.035156 140.285156 C 241.980469 138.246094 241.492188 137.847656 235.777344 133.328125 C 233.425781 131.464844 230.679688 129.292969 229.660156 128.539062 C 228.640625 127.742188 227.089844 126.589844 226.25 125.925781 C 225.40625 125.261719 224.078125 124.332031 223.367188 123.800781 C 213.839844 117.152344 204.226562 109.972656 194.253906 102.085938 C 191.730469 100.09375 189.25 98.230469 188.804688 98.011719 C 188.050781 97.65625 187.386719 98.054688 183.488281 101.15625 C 181.050781 103.105469 178.613281 104.96875 178.171875 105.277344 C 177.683594 105.585938 176.753906 106.339844 176.085938 106.917969 C 175.421875 107.492188 174.492188 108.246094 174.050781 108.554688 C 173.605469 108.867188 170.238281 111.347656 166.648438 114.007812 C 163.058594 116.710938 159.515625 119.324219 158.761719 119.8125 C 158.050781 120.296875 156.8125 121.183594 156.058594 121.714844 C 155.304688 122.25 154.066406 123.179688 153.265625 123.710938 C 150.785156 125.4375 144.539062 130.179688 142.453125 131.910156 C 141.347656 132.792969 139.75 134.078125 138.910156 134.746094 C 138.066406 135.410156 136.605469 136.515625 135.71875 137.226562 C 134.832031 137.933594 132.882812 139.308594 131.464844 140.285156 C 130.046875 141.257812 128.585938 142.367188 128.273438 142.71875 C 127.789062 143.296875 127.699219 148.660156 127.523438 175.023438 L 127.34375 206.617188 L 129.207031 205.199219 C 131.289062 203.605469 131.863281 203.472656 132.617188 204.359375 C 133.460938 205.378906 131.996094 208.65625 129.558594 211.183594 C 128.40625 212.378906 127.433594 213.621094 127.433594 213.886719 C 127.433594 214.773438 130.800781 219.027344 134.035156 222.214844 L 137.136719 225.316406 L 142.101562 225.316406 Z M 223.679688 224.964844 C 223.679688 224.785156 224.03125 221.863281 224.476562 218.492188 C 224.917969 215.125 225.230469 212.335938 225.140625 212.246094 C 224.875 211.980469 210.960938 211.890625 210.738281 212.113281 C 210.519531 212.335938 211.183594 222.792969 211.492188 224.386719 C 211.667969 225.273438 211.757812 225.273438 217.652344 225.273438 C 220.976562 225.316406 223.679688 225.140625 223.679688 224.964844 Z M 201.300781 200.015625 C 201.34375 183.976562 201.34375 175.953125 201.257812 171.699219 C 201.125 167.003906 200.859375 166.871094 200.238281 165.628906 C 199.707031 164.566406 199.042969 164.125 198.996094 164.875 C 198.90625 168.554688 198.863281 180.472656 198.863281 194.519531 L 198.863281 225.316406 L 201.257812 225.316406 Z M 196.871094 193.769531 C 196.871094 171.699219 196.957031 164.566406 196.292969 162.128906 C 196.117188 161.464844 194.699219 160.667969 193.902344 160.445312 C 192.304688 160.046875 192.617188 161.019531 192.617188 161.242188 C 192.617188 166.648438 192.703125 192.660156 192.703125 192.660156 C 192.75 210.515625 192.792969 225.140625 192.835938 225.230469 C 192.882812 225.273438 193.8125 225.316406 194.875 225.316406 L 196.871094 225.316406 Z M 190.355469 192.617188 L 190.265625 161.152344 C 190.265625 161.019531 190.089844 160.046875 189.648438 159.824219 C 188.804688 159.382812 187.296875 159.601562 186.765625 159.558594 C 186.011719 159.515625 185.613281 160.355469 185.613281 160.710938 L 185.613281 225.316406 L 190.398438 225.316406 Z M 183.265625 192.703125 C 183.265625 192.703125 183.265625 167.578125 183.265625 162.171875 C 183.265625 161.507812 183.042969 160.753906 182.777344 160.488281 C 182.511719 160.269531 180.917969 160.976562 180.652344 161.109375 C 180.121094 161.375 179.542969 162.21875 179.542969 162.882812 C 179.410156 166.558594 179.324219 179.144531 179.324219 193.8125 L 179.324219 225.316406 L 183.308594 225.316406 Z M 177.238281 194.476562 C 177.238281 178.167969 177.152344 168.378906 176.972656 165.097656 C 176.929688 164.257812 175.867188 165.320312 175.511719 165.984375 C 174.582031 167.890625 174.625 170.148438 174.625 171.257812 C 174.625 175.246094 174.625 191.863281 174.625 191.863281 C 174.625 205.066406 174.667969 217.960938 174.757812 220.578125 L 174.890625 225.273438 L 177.238281 225.273438 Z M 164.476562 225.230469 C 164.699219 224.519531 165.542969 212.289062 165.363281 212.113281 C 165.140625 211.847656 151.183594 212.023438 150.917969 212.289062 C 150.742188 212.46875 151.628906 220.175781 152.246094 224.03125 L 152.46875 225.316406 L 158.453125 225.316406 C 161.773438 225.316406 164.476562 225.273438 164.476562 225.230469 Z M 131.421875 222.394531 C 129.914062 220.796875 128.320312 219.027344 127.964844 218.492188 C 127.300781 217.519531 127.300781 217.609375 127.257812 221.375 L 127.257812 225.273438 L 134.210938 225.273438 Z M 166.074219 209.675781 L 166.074219 207.195312 L 158.671875 207.414062 C 154.597656 207.546875 151.140625 207.726562 150.917969 207.859375 C 150.742188 207.992188 150.652344 208.480469 150.742188 209.011719 L 150.917969 209.941406 Z M 225.273438 208.746094 C 225.273438 207.859375 225.097656 207.816406 221.996094 207.546875 C 220.179688 207.414062 216.765625 207.28125 214.371094 207.28125 L 210.074219 207.28125 L 210.074219 209.675781 L 225.273438 209.675781 Z M 158.453125 186.101562 C 158.453125 185.214844 158.273438 184.507812 158.050781 184.507812 C 157.832031 184.507812 157.652344 185.214844 157.652344 186.101562 C 157.652344 186.988281 157.832031 187.695312 158.050781 187.695312 C 158.273438 187.695312 158.453125 186.988281 158.453125 186.101562 Z M 218.449219 186.101562 C 218.449219 185.214844 218.273438 184.507812 218.050781 184.507812 C 217.828125 184.507812 217.652344 185.214844 217.652344 186.101562 C 217.652344 186.988281 217.828125 187.695312 218.050781 187.695312 C 218.273438 187.695312 218.449219 186.988281 218.449219 186.101562 Z M 162.441406 186.855469 C 162.441406 186.011719 160.535156 183.089844 160.179688 183.441406 C 160.089844 183.53125 160.269531 184.242188 160.578125 184.949219 C 160.886719 185.703125 161.242188 186.632812 161.375 187.03125 C 161.730469 188.007812 162.441406 187.875 162.441406 186.855469 Z M 215.304688 185.527344 C 215.703125 184.460938 215.96875 183.488281 215.878906 183.398438 C 215.570312 183.089844 213.664062 186.011719 213.664062 186.855469 C 213.664062 188.316406 214.507812 187.609375 215.304688 185.527344 Z M 223.679688 183.753906 C 223.679688 183.222656 221.816406 182.113281 220.84375 182.113281 C 220.355469 182.113281 220.042969 182.335938 220.179688 182.601562 C 220.488281 183.621094 223.679688 184.640625 223.679688 183.753906 Z M 154.863281 183.488281 C 155.527344 183.132812 156.058594 182.691406 156.058594 182.46875 C 156.058594 181.847656 154.550781 182.023438 153.445312 182.734375 C 151.496094 184.019531 152.691406 184.640625 154.863281 183.488281 Z M 164.65625 182.511719 C 164.65625 181.804688 163.238281 181.316406 162.261719 181.671875 C 161.554688 181.9375 161.554688 182.023438 162.660156 182.601562 C 163.992188 183.355469 164.65625 183.308594 164.65625 182.511719 Z M 214.285156 182.070312 C 214.417969 181.890625 213.796875 181.714844 212.867188 181.714844 C 211.359375 181.714844 210.738281 182.289062 211.492188 183 C 211.757812 183.308594 213.972656 182.558594 214.285156 182.070312 Z M 158.671875 181.050781 C 158.453125 180.519531 158.320312 180.472656 157.917969 180.828125 C 157.519531 181.183594 157.566406 181.40625 158.007812 181.671875 C 158.804688 182.15625 159.027344 181.9375 158.671875 181.050781 Z M 218.359375 181.226562 C 218.183594 180.605469 217.476562 180.785156 217.34375 181.492188 C 217.253906 181.9375 217.429688 182.023438 217.875 181.847656 C 218.183594 181.714844 218.449219 181.449219 218.359375 181.226562 Z M 162.972656 178.347656 C 163.8125 177.683594 163.546875 176.929688 162.441406 176.929688 C 161.730469 176.929688 159.648438 179.011719 159.648438 179.675781 C 159.648438 180.738281 160.269531 180.472656 162.972656 178.347656 Z M 216.191406 179.765625 C 216.589844 179.144531 214.417969 176.886719 213.398438 176.886719 C 211.980469 176.886719 212.203125 177.816406 213.929688 179.011719 C 215.570312 180.164062 215.878906 180.296875 216.191406 179.765625 Z M 223.945312 179.011719 C 224.164062 178.304688 222.660156 178.390625 221.242188 179.101562 C 220.578125 179.453125 220.042969 179.765625 220.042969 179.808594 C 220.042969 180.207031 223.8125 179.410156 223.945312 179.011719 Z M 154.683594 179.101562 C 153.398438 178.125 151.316406 178.4375 152.335938 179.453125 C 152.46875 179.585938 153.265625 179.722656 154.019531 179.722656 C 155.351562 179.675781 155.394531 179.632812 154.683594 179.101562 Z M 218.980469 177.019531 C 219.246094 175.378906 218.9375 174.492188 218.40625 175.332031 C 217.960938 176.042969 217.960938 178.480469 218.40625 178.480469 C 218.582031 178.480469 218.847656 177.859375 218.980469 177.019531 Z M 158.050781 177.195312 C 158.050781 175.820312 157.476562 174.535156 157.035156 174.980469 C 156.679688 175.332031 157.253906 178.480469 157.699219 178.480469 C 157.875 178.480469 158.050781 177.902344 158.050781 177.195312 Z M 158.050781 177.195312 " fill-opacity="1" fill-rule="nonzero"/></g><g fill="#373534" fill-opacity="1"><g transform="translate(99.066977, 267.94756)"><g><path d="M 3.71875 -25.859375 C 4.570312 -26.054688 5.601562 -26.160156 6.8125 -26.171875 C 8.019531 -26.191406 8.90625 -26.085938 9.46875 -25.859375 C 10.007812 -25.710938 10.4375 -25.484375 10.75 -25.171875 L 11.140625 -24.796875 L 11.953125 -25.140625 C 12.347656 -25.304688 12.738281 -25.414062 13.125 -25.46875 C 13.507812 -25.53125 14.195312 -25.5625 15.1875 -25.5625 C 16.300781 -25.5625 17.019531 -25.53125 17.34375 -25.46875 C 17.675781 -25.414062 18.023438 -25.304688 18.390625 -25.140625 C 19.210938 -24.648438 19.695312 -23.921875 19.84375 -22.953125 C 19.988281 -21.984375 19.832031 -20.601562 19.375 -18.8125 C 19.113281 -17.851562 18.660156 -16.601562 18.015625 -15.0625 C 17.378906 -13.53125 16.804688 -12.28125 16.296875 -11.3125 C 15.535156 -10 14.679688 -9.03125 13.734375 -8.40625 C 13.109375 -8.039062 12.597656 -7.859375 12.203125 -7.859375 C 11.804688 -7.859375 11.394531 -8.054688 10.96875 -8.453125 C 10.570312 -8.898438 10.375 -9.210938 10.375 -9.390625 C 10.375 -9.617188 10.710938 -10.242188 11.390625 -11.265625 C 12.015625 -12.265625 12.710938 -13.601562 13.484375 -15.28125 C 14.253906 -16.957031 14.78125 -18.335938 15.0625 -19.421875 C 15.34375 -20.472656 15.484375 -21.054688 15.484375 -21.171875 C 15.484375 -21.335938 15.070312 -21.40625 14.25 -21.375 C 13.476562 -21.351562 12.796875 -21.382812 12.203125 -21.46875 L 11.34375 -21.640625 L 11.015625 -20.359375 C 10.703125 -19.046875 10.097656 -17.609375 9.203125 -16.046875 C 8.304688 -14.484375 7.457031 -13.375 6.65625 -12.71875 C 6.0625 -12.226562 5.460938 -11.847656 4.859375 -11.578125 C 4.265625 -11.316406 3.769531 -11.210938 3.375 -11.265625 C 2.4375 -11.429688 1.765625 -11.84375 1.359375 -12.5 C 0.878906 -13.300781 0.851562 -13.6875 1.28125 -13.65625 C 1.332031 -13.65625 1.390625 -13.65625 1.453125 -13.65625 C 1.679688 -13.59375 1.875 -13.613281 2.03125 -13.71875 C 2.1875 -13.820312 2.460938 -14.039062 2.859375 -14.375 C 3.597656 -15.09375 4.359375 -16.113281 5.140625 -17.4375 C 5.921875 -18.757812 6.453125 -19.929688 6.734375 -20.953125 L 7 -21.96875 L 5.625 -21.96875 C 4.375 -21.96875 3.414062 -22.140625 2.75 -22.484375 C 2.082031 -22.828125 1.75 -23.328125 1.75 -23.984375 C 1.75 -24.523438 1.882812 -24.929688 2.15625 -25.203125 C 2.425781 -25.472656 2.945312 -25.691406 3.71875 -25.859375 Z M 25.34375 -29.65625 C 25.65625 -29.914062 25.851562 -30.046875 25.9375 -30.046875 C 26.144531 -30.046875 26.515625 -29.796875 27.046875 -29.296875 C 27.585938 -28.796875 27.988281 -28.347656 28.25 -27.953125 L 28.765625 -27.046875 L 28.796875 -22.578125 L 28.9375 -18.171875 L 30.046875 -18.484375 C 30.921875 -18.648438 31.84375 -18.65625 32.8125 -18.5 C 33.78125 -18.34375 34.492188 -18.050781 34.953125 -17.625 C 35.179688 -17.425781 35.296875 -17.066406 35.296875 -16.546875 C 35.296875 -16.035156 35.164062 -15.625 34.90625 -15.3125 C 34.820312 -15.175781 34.664062 -15.03125 34.4375 -14.875 C 34.207031 -14.71875 33.960938 -14.597656 33.703125 -14.515625 C 33.191406 -14.253906 32.472656 -14.046875 31.546875 -13.890625 C 30.628906 -13.734375 30.03125 -13.695312 29.75 -13.78125 C 29.34375 -13.894531 29.085938 -13.820312 28.984375 -13.5625 C 28.890625 -13.3125 28.84375 -12.570312 28.84375 -11.34375 C 28.84375 -9.351562 28.710938 -7.773438 28.453125 -6.609375 C 28.203125 -5.441406 27.789062 -4.5625 27.21875 -3.96875 C 26.738281 -3.507812 26.414062 -3.28125 26.25 -3.28125 C 25.988281 -3.28125 25.664062 -3.507812 25.28125 -3.96875 C 24.894531 -4.425781 24.632812 -4.894531 24.5 -5.375 C 24.351562 -5.882812 24.300781 -9.859375 24.34375 -17.296875 C 24.382812 -24.742188 24.460938 -28.609375 24.578125 -28.890625 C 24.722656 -29.140625 24.976562 -29.394531 25.34375 -29.65625 Z M 25.34375 -29.65625 "/></g></g></g><g fill="#373534" fill-opacity="1"><g transform="translate(135.334813, 267.94756)"><g><path d="M 18.734375 -8.328125 C 18.273438 -8.546875 17.71875 -8.632812 17.0625 -8.59375 C 16.414062 -8.550781 15.878906 -8.414062 15.453125 -8.1875 C 15.078125 -7.96875 14.722656 -7.648438 14.390625 -7.234375 C 14.066406 -6.816406 13.863281 -6.425781 13.78125 -6.0625 C 13.664062 -5.632812 13.898438 -5.21875 14.484375 -4.8125 C 15.066406 -4.414062 15.703125 -4.25 16.390625 -4.3125 C 16.835938 -4.394531 17.351562 -4.640625 17.9375 -5.046875 C 18.519531 -5.460938 18.972656 -5.941406 19.296875 -6.484375 C 19.628906 -7.023438 19.695312 -7.4375 19.5 -7.71875 C 19.351562 -7.945312 19.097656 -8.148438 18.734375 -8.328125 Z M 14.765625 -12.15625 C 15.585938 -12.332031 16.53125 -12.421875 17.59375 -12.421875 C 18.664062 -12.421875 19.472656 -12.347656 20.015625 -12.203125 C 21.410156 -11.835938 22.484375 -11.207031 23.234375 -10.3125 C 23.984375 -9.414062 24.359375 -8.3125 24.359375 -7 C 24.359375 -6.0625 24.222656 -5.265625 23.953125 -4.609375 C 23.691406 -3.953125 23.234375 -3.3125 22.578125 -2.6875 C 21.640625 -1.75 20.507812 -1.046875 19.1875 -0.578125 C 17.863281 -0.109375 16.503906 0.0664062 15.109375 -0.046875 C 14.109375 -0.160156 13.164062 -0.414062 12.28125 -0.8125 C 11.40625 -1.207031 10.679688 -1.722656 10.109375 -2.359375 C 9.546875 -3.003906 9.117188 -3.695312 8.828125 -4.4375 C 8.546875 -5.175781 8.460938 -5.953125 8.578125 -6.765625 C 8.691406 -7.578125 9.003906 -8.320312 9.515625 -9 C 10.140625 -9.800781 10.914062 -10.46875 11.84375 -11 C 12.769531 -11.539062 13.742188 -11.925781 14.765625 -12.15625 Z M 13.734375 -25.6875 C 13.679688 -25.832031 12.492188 -25.867188 10.171875 -25.796875 C 7.859375 -25.722656 6.644531 -25.601562 6.53125 -25.4375 C 6.414062 -25.34375 6.515625 -24.394531 6.828125 -22.59375 C 7.140625 -20.789062 7.351562 -19.816406 7.46875 -19.671875 C 7.613281 -19.523438 7.941406 -19.507812 8.453125 -19.625 C 8.992188 -19.738281 9.914062 -19.835938 11.21875 -19.921875 L 13.234375 -20.0625 L 13.359375 -21 C 13.441406 -21.707031 13.539062 -22.648438 13.65625 -23.828125 C 13.769531 -25.015625 13.796875 -25.632812 13.734375 -25.6875 Z M 7.59375 -29.953125 C 8.613281 -30.128906 9.921875 -30.191406 11.515625 -30.140625 C 13.109375 -30.097656 14.234375 -29.992188 14.890625 -29.828125 C 15.429688 -29.628906 16.003906 -29.285156 16.609375 -28.796875 C 17.222656 -28.316406 17.632812 -27.863281 17.84375 -27.4375 C 17.945312 -27.207031 18.003906 -26.875 18.015625 -26.4375 C 18.035156 -26 18.03125 -25.140625 18 -23.859375 C 17.945312 -22.378906 17.882812 -21.238281 17.8125 -20.4375 C 17.738281 -19.644531 17.640625 -18.976562 17.515625 -18.4375 C 17.390625 -17.894531 17.226562 -17.507812 17.03125 -17.28125 C 16.832031 -17.050781 16.546875 -16.851562 16.171875 -16.6875 C 15.578125 -16.40625 14.800781 -16.195312 13.84375 -16.0625 C 12.894531 -15.9375 11.320312 -15.84375 9.125 -15.78125 C 8.476562 -15.757812 8 -15.738281 7.6875 -15.71875 C 7.375 -15.707031 7.007812 -15.703125 6.59375 -15.703125 C 6.175781 -15.703125 5.882812 -15.703125 5.71875 -15.703125 C 5.550781 -15.703125 5.351562 -15.722656 5.125 -15.765625 C 4.894531 -15.804688 4.734375 -15.84375 4.640625 -15.875 C 4.554688 -15.90625 4.441406 -15.96875 4.296875 -16.0625 C 4.160156 -16.164062 4.054688 -16.25 3.984375 -16.3125 C 3.921875 -16.382812 3.800781 -16.523438 3.625 -16.734375 C 3.425781 -16.984375 3.269531 -17.253906 3.15625 -17.546875 C 3.039062 -17.847656 2.925781 -18.328125 2.8125 -18.984375 C 2.332031 -21.546875 2.078125 -23.453125 2.046875 -24.703125 C 2.015625 -25.953125 2.1875 -26.945312 2.5625 -27.6875 C 2.757812 -28.03125 2.957031 -28.28125 3.15625 -28.4375 C 3.351562 -28.59375 3.796875 -28.800781 4.484375 -29.0625 C 5.472656 -29.457031 6.507812 -29.753906 7.59375 -29.953125 Z M 24.875 -32.125 C 25.1875 -32.238281 25.460938 -32.242188 25.703125 -32.140625 C 25.953125 -32.046875 26.257812 -31.816406 26.625 -31.453125 C 27.195312 -30.878906 27.585938 -30.179688 27.796875 -29.359375 C 28.015625 -28.535156 28.132812 -27.140625 28.15625 -25.171875 L 28.203125 -24.03125 L 30.46875 -23.9375 C 31.351562 -23.9375 31.984375 -23.90625 32.359375 -23.84375 C 32.742188 -23.789062 33.066406 -23.679688 33.328125 -23.515625 C 34.117188 -23.054688 34.414062 -22.488281 34.21875 -21.8125 C 33.789062 -20.644531 32.242188 -20.0625 29.578125 -20.0625 L 28.125 -20.0625 L 27.953125 -18.515625 C 27.753906 -15.304688 26.898438 -13.703125 25.390625 -13.703125 C 24.929688 -13.703125 24.566406 -13.8125 24.296875 -14.03125 C 24.023438 -14.257812 23.804688 -14.601562 23.640625 -15.0625 C 23.523438 -15.320312 23.46875 -16.238281 23.46875 -17.8125 C 23.46875 -19.394531 23.507812 -21.207031 23.59375 -23.25 C 23.65625 -24.90625 23.644531 -26.34375 23.5625 -27.5625 C 23.414062 -28.925781 23.457031 -29.972656 23.6875 -30.703125 C 23.914062 -31.429688 24.3125 -31.90625 24.875 -32.125 Z M 24.875 -32.125 "/></g></g></g><g fill="#373534" fill-opacity="1"><g transform="translate(171.602648, 267.94756)"><g><path d="M 4.5625 -25.140625 C 5.019531 -25.566406 5.582031 -25.585938 6.25 -25.203125 C 6.914062 -24.816406 7.453125 -24.15625 7.859375 -23.21875 C 8.273438 -22.25 8.539062 -19.828125 8.65625 -15.953125 L 8.703125 -14.421875 L 10.203125 -14.421875 C 11.171875 -14.453125 12.4375 -14.566406 14 -14.765625 C 14.675781 -14.847656 15.222656 -14.90625 15.640625 -14.9375 C 16.054688 -14.96875 16.429688 -14.988281 16.765625 -15 C 17.109375 -15.007812 17.378906 -15 17.578125 -14.96875 C 17.773438 -14.945312 17.929688 -14.882812 18.046875 -14.78125 C 18.160156 -14.6875 18.238281 -14.585938 18.28125 -14.484375 C 18.320312 -14.390625 18.34375 -14.238281 18.34375 -14.03125 C 18.34375 -12.957031 17.5625 -12.054688 16 -11.328125 C 14.4375 -10.597656 12.257812 -10.132812 9.46875 -9.9375 C 8.21875 -9.882812 7.320312 -9.925781 6.78125 -10.0625 C 6.238281 -10.207031 5.710938 -10.59375 5.203125 -11.21875 C 4.742188 -11.707031 4.441406 -12.148438 4.296875 -12.546875 C 4.160156 -12.941406 4.070312 -13.5 4.03125 -14.21875 C 3.988281 -14.945312 3.96875 -16.222656 3.96875 -18.046875 C 4 -20.722656 4.046875 -22.507812 4.109375 -23.40625 C 4.179688 -24.300781 4.332031 -24.878906 4.5625 -25.140625 Z M 21.765625 -28.375 C 22.390625 -29.175781 23.113281 -29.175781 23.9375 -28.375 C 24.425781 -27.863281 24.75 -27.1875 24.90625 -26.34375 C 25.0625 -25.507812 25.179688 -23.84375 25.265625 -21.34375 C 25.429688 -15.820312 25.394531 -11.875 25.15625 -9.5 C 24.914062 -7.125 24.4375 -5.675781 23.71875 -5.15625 C 22.84375 -4.59375 22.175781 -5.222656 21.71875 -7.046875 C 21.519531 -7.804688 21.421875 -9.695312 21.421875 -12.71875 C 21.421875 -14.050781 21.421875 -15.066406 21.421875 -15.765625 C 21.421875 -16.460938 21.398438 -17.03125 21.359375 -17.46875 C 21.316406 -17.914062 21.265625 -18.195312 21.203125 -18.3125 C 21.148438 -18.425781 21.066406 -18.453125 20.953125 -18.390625 C 20.804688 -18.335938 20.109375 -18.265625 18.859375 -18.171875 C 17.804688 -18.117188 16.9375 -18.160156 16.25 -18.296875 C 15.570312 -18.441406 14.960938 -18.703125 14.421875 -19.078125 C 13.992188 -19.390625 13.757812 -19.78125 13.71875 -20.25 C 13.675781 -20.71875 13.835938 -21.125 14.203125 -21.46875 C 14.460938 -21.695312 14.953125 -21.929688 15.671875 -22.171875 C 16.398438 -22.410156 16.921875 -22.53125 17.234375 -22.53125 C 17.722656 -22.53125 18.492188 -22.613281 19.546875 -22.78125 L 21.296875 -22.953125 L 21.25 -24.96875 C 21.25 -26.414062 21.265625 -27.265625 21.296875 -27.515625 C 21.328125 -27.773438 21.484375 -28.0625 21.765625 -28.375 Z M 29.828125 -29.90625 C 30.367188 -30.195312 30.832031 -30.082031 31.21875 -29.5625 C 31.601562 -29.050781 31.894531 -28.203125 32.09375 -27.015625 C 32.207031 -26.160156 32.273438 -22.84375 32.296875 -17.0625 C 32.296875 -13.164062 32.28125 -10.65625 32.25 -9.53125 C 32.226562 -8.414062 32.160156 -7.53125 32.046875 -6.875 C 31.847656 -6.070312 31.578125 -5.269531 31.234375 -4.46875 C 30.890625 -3.675781 30.578125 -3.113281 30.296875 -2.78125 C 30.148438 -2.550781 30.035156 -2.425781 29.953125 -2.40625 C 29.867188 -2.394531 29.742188 -2.488281 29.578125 -2.6875 C 28.660156 -3.394531 28.21875 -7.960938 28.25 -16.390625 C 28.25 -20.628906 28.296875 -23.628906 28.390625 -25.390625 C 28.492188 -27.148438 28.675781 -28.300781 28.9375 -28.84375 C 29.070312 -29.070312 29.222656 -29.289062 29.390625 -29.5 C 29.566406 -29.71875 29.710938 -29.851562 29.828125 -29.90625 Z M 29.828125 -29.90625 "/></g></g></g><g fill="#373534" fill-opacity="1"><g transform="translate(207.870483, 267.94756)"><g><path d="M 22.78125 -8.015625 C 21.820312 -8.472656 20.898438 -8.609375 20.015625 -8.421875 C 19.128906 -8.242188 18.515625 -7.785156 18.171875 -7.046875 C 17.804688 -6.304688 17.835938 -5.734375 18.265625 -5.328125 C 18.578125 -4.960938 19.171875 -4.800781 20.046875 -4.84375 C 20.929688 -4.882812 21.703125 -5.078125 22.359375 -5.421875 C 23.179688 -5.878906 23.628906 -6.351562 23.703125 -6.84375 C 23.773438 -7.34375 23.46875 -7.734375 22.78125 -8.015625 Z M 18.984375 -12.03125 C 19.554688 -12.144531 20.347656 -12.1875 21.359375 -12.15625 C 22.367188 -12.132812 23.113281 -12.019531 23.59375 -11.8125 C 23.988281 -11.707031 24.53125 -11.453125 25.21875 -11.046875 C 26.300781 -10.367188 27.085938 -9.515625 27.578125 -8.484375 C 28.078125 -7.460938 28.234375 -6.414062 28.046875 -5.34375 C 27.867188 -4.28125 27.335938 -3.378906 26.453125 -2.640625 C 25.972656 -2.160156 25.289062 -1.71875 24.40625 -1.3125 C 23.519531 -0.914062 22.679688 -0.632812 21.890625 -0.46875 C 20.242188 -0.1875 18.601562 -0.359375 16.96875 -0.984375 C 15.332031 -1.609375 14.226562 -2.519531 13.65625 -3.71875 C 13.375 -4.25 13.203125 -4.921875 13.140625 -5.734375 C 13.085938 -6.546875 13.175781 -7.238281 13.40625 -7.8125 C 13.71875 -8.6875 14.429688 -9.535156 15.546875 -10.359375 C 16.671875 -11.191406 17.816406 -11.75 18.984375 -12.03125 Z M 10.03125 -29.140625 C 14.070312 -29.335938 16.429688 -29.253906 17.109375 -28.890625 C 17.703125 -28.578125 18.0625 -28.171875 18.1875 -27.671875 C 18.320312 -27.171875 18.25 -26.410156 17.96875 -25.390625 C 17.65625 -24.171875 17.113281 -23.019531 16.34375 -21.9375 L 15.875 -21.203125 L 16.296875 -21 C 17.722656 -20.144531 19.003906 -19.429688 20.140625 -18.859375 C 20.992188 -18.460938 21.59375 -18.09375 21.9375 -17.75 C 22.28125 -17.40625 22.453125 -17.050781 22.453125 -16.6875 C 22.453125 -16.082031 22.113281 -15.570312 21.4375 -15.15625 C 20.769531 -14.75 20.023438 -14.617188 19.203125 -14.765625 C 18.460938 -14.847656 17.628906 -15.148438 16.703125 -15.671875 C 15.773438 -16.203125 14.914062 -16.851562 14.125 -17.625 L 13.359375 -18.34375 L 12.15625 -17.328125 C 11.59375 -16.753906 10.953125 -16.238281 10.234375 -15.78125 C 9.523438 -15.332031 8.898438 -15.035156 8.359375 -14.890625 C 7.679688 -14.640625 6.972656 -14.59375 6.234375 -14.75 C 5.492188 -14.90625 5.035156 -15.207031 4.859375 -15.65625 C 4.722656 -15.914062 4.742188 -16.160156 4.921875 -16.390625 C 5.109375 -16.617188 5.6875 -17.085938 6.65625 -17.796875 C 7.507812 -18.472656 8.425781 -19.300781 9.40625 -20.28125 C 10.382812 -21.269531 11.21875 -22.203125 11.90625 -23.078125 C 11.957031 -23.191406 12.03125 -23.320312 12.125 -23.46875 C 12.320312 -23.726562 12.453125 -23.90625 12.515625 -24 C 12.585938 -24.101562 12.671875 -24.234375 12.765625 -24.390625 C 12.867188 -24.546875 12.925781 -24.644531 12.9375 -24.6875 C 12.957031 -24.726562 12.945312 -24.773438 12.90625 -24.828125 C 12.863281 -24.890625 12.804688 -24.925781 12.734375 -24.9375 C 12.660156 -24.957031 12.523438 -24.976562 12.328125 -25 C 12.128906 -25.03125 11.953125 -25.046875 11.796875 -25.046875 C 11.640625 -25.046875 11.378906 -25.046875 11.015625 -25.046875 C 10.785156 -25.046875 10.628906 -25.046875 10.546875 -25.046875 C 9.429688 -24.992188 8.660156 -24.992188 8.234375 -25.046875 C 7.804688 -25.109375 7.394531 -25.191406 7 -25.296875 C 6.34375 -25.585938 5.914062 -25.972656 5.71875 -26.453125 C 5.519531 -26.941406 5.601562 -27.425781 5.96875 -27.90625 C 6.34375 -28.363281 6.773438 -28.671875 7.265625 -28.828125 C 7.765625 -28.984375 8.6875 -29.085938 10.03125 -29.140625 Z M 27.828125 -31.328125 C 28.078125 -31.609375 28.363281 -31.773438 28.6875 -31.828125 C 29.019531 -31.890625 29.332031 -31.828125 29.625 -31.640625 C 29.925781 -31.453125 30.195312 -31.179688 30.4375 -30.828125 C 30.6875 -30.472656 30.894531 -30.019531 31.0625 -29.46875 C 31.238281 -28.914062 31.378906 -28.3125 31.484375 -27.65625 C 31.597656 -26.539062 31.65625 -24.75 31.65625 -22.28125 C 31.65625 -19.113281 31.441406 -16.832031 31.015625 -15.4375 C 30.585938 -14.050781 29.921875 -13.359375 29.015625 -13.359375 C 28.671875 -13.359375 28.320312 -13.539062 27.96875 -13.90625 C 27.613281 -14.28125 27.351562 -14.722656 27.1875 -15.234375 C 27.070312 -15.742188 27.015625 -16.753906 27.015625 -18.265625 L 27.015625 -20.5625 L 26.375 -20.4375 C 25.863281 -20.320312 25.113281 -20.285156 24.125 -20.328125 C 23.144531 -20.367188 22.484375 -20.4375 22.140625 -20.53125 C 21.203125 -20.84375 20.664062 -21.367188 20.53125 -22.109375 C 20.414062 -22.734375 20.707031 -23.234375 21.40625 -23.609375 C 22.101562 -23.992188 23.273438 -24.257812 24.921875 -24.40625 L 27.140625 -24.625 L 27.015625 -26.71875 C 26.929688 -28 26.9375 -28.992188 27.03125 -29.703125 C 27.132812 -30.410156 27.398438 -30.953125 27.828125 -31.328125 Z M 27.828125 -31.328125 "/></g></g></g><g fill="#373534" fill-opacity="1"><g transform="translate(244.138319, 267.94756)"><g><path d="M 15.828125 -8.921875 C 15.972656 -9.117188 16.113281 -9.226562 16.25 -9.25 C 16.394531 -9.28125 16.609375 -9.285156 16.890625 -9.265625 C 17.492188 -9.171875 17.957031 -8.867188 18.28125 -8.359375 C 18.613281 -7.847656 18.78125 -7.207031 18.78125 -6.4375 C 18.78125 -5.84375 18.863281 -5.445312 19.03125 -5.25 C 19.289062 -4.851562 20.515625 -4.625 22.703125 -4.5625 C 24.890625 -4.507812 26.753906 -4.640625 28.296875 -4.953125 C 29.484375 -5.203125 30.238281 -5.304688 30.5625 -5.265625 C 30.894531 -5.222656 31.203125 -5.03125 31.484375 -4.6875 C 32.117188 -3.976562 32.117188 -3.269531 31.484375 -2.5625 C 30.890625 -1.820312 29.929688 -1.28125 28.609375 -0.9375 C 27.285156 -0.59375 25.515625 -0.421875 23.296875 -0.421875 C 21.503906 -0.421875 20.109375 -0.503906 19.109375 -0.671875 C 18.117188 -0.847656 17.238281 -1.164062 16.46875 -1.625 C 15.59375 -2.101562 14.960938 -2.785156 14.578125 -3.671875 C 14.191406 -4.554688 14.125 -5.421875 14.375 -6.265625 C 14.71875 -7.429688 15.203125 -8.316406 15.828125 -8.921875 Z M 19.328125 -19.203125 C 20.578125 -19.347656 21.734375 -19.40625 22.796875 -19.375 C 23.867188 -19.34375 24.546875 -19.253906 24.828125 -19.109375 C 25.117188 -19.003906 25.289062 -18.882812 25.34375 -18.75 C 25.40625 -18.625 25.421875 -18.421875 25.390625 -18.140625 C 25.304688 -17.566406 24.664062 -17.050781 23.46875 -16.59375 C 22.269531 -16.144531 20.707031 -15.804688 18.78125 -15.578125 C 18.6875 -15.546875 18.554688 -15.53125 18.390625 -15.53125 C 17.171875 -15.382812 16.46875 -15.257812 16.28125 -15.15625 C 16.09375 -15.0625 16.015625 -14.800781 16.046875 -14.375 C 16.078125 -14.289062 16.09375 -14.222656 16.09375 -14.171875 C 16.226562 -13.054688 16.125 -11.898438 15.78125 -10.703125 C 15.445312 -9.515625 15.023438 -8.832031 14.515625 -8.65625 C 13.566406 -8.375 12.863281 -8.582031 12.40625 -9.28125 C 11.957031 -9.976562 11.773438 -11.125 11.859375 -12.71875 C 11.972656 -13.851562 12.0625 -14.519531 12.125 -14.71875 C 12.144531 -14.832031 12.054688 -14.90625 11.859375 -14.9375 C 11.628906 -14.96875 10.804688 -14.984375 9.390625 -14.984375 C 8.222656 -14.953125 7.40625 -14.945312 6.9375 -14.96875 C 6.46875 -15 6.0625 -15.085938 5.71875 -15.234375 C 4.976562 -15.546875 4.476562 -15.976562 4.21875 -16.53125 C 3.96875 -17.09375 4.082031 -17.53125 4.5625 -17.84375 C 4.9375 -18.09375 5.71875 -18.28125 6.90625 -18.40625 C 8.101562 -18.539062 11.164062 -18.75 16.09375 -19.03125 C 17.28125 -19.0625 18.359375 -19.117188 19.328125 -19.203125 Z M 29.015625 -31.484375 C 29.296875 -31.660156 29.597656 -31.726562 29.921875 -31.6875 C 30.253906 -31.644531 30.550781 -31.492188 30.8125 -31.234375 C 31.238281 -30.753906 31.539062 -30.164062 31.71875 -29.46875 C 31.90625 -28.769531 32.023438 -27.726562 32.078125 -26.34375 C 32.140625 -24.96875 32.144531 -22.828125 32.09375 -19.921875 C 32.0625 -17.191406 32.023438 -15.363281 31.984375 -14.4375 C 31.941406 -13.519531 31.863281 -12.847656 31.75 -12.421875 C 31.15625 -10.316406 30.488281 -9.148438 29.75 -8.921875 C 29.257812 -8.773438 28.859375 -9.203125 28.546875 -10.203125 C 28.492188 -10.335938 28.421875 -10.519531 28.328125 -10.75 C 28.191406 -11.375 28.078125 -11.75 27.984375 -11.875 C 27.898438 -12.007812 27.773438 -12.0625 27.609375 -12.03125 C 27.265625 -11.945312 26.367188 -11.863281 24.921875 -11.78125 C 23.671875 -11.71875 22.796875 -11.75 22.296875 -11.875 C 21.796875 -12.007812 21.40625 -12.257812 21.125 -12.625 C 21.007812 -12.820312 20.941406 -12.984375 20.921875 -13.109375 C 20.910156 -13.242188 20.9375 -13.394531 21 -13.5625 C 21.132812 -13.875 21.375 -14.132812 21.71875 -14.34375 C 22 -14.476562 22.765625 -14.648438 24.015625 -14.859375 C 25.273438 -15.078125 26.300781 -15.1875 27.09375 -15.1875 L 27.953125 -15.1875 L 27.953125 -22.484375 C 27.953125 -25.816406 27.972656 -27.898438 28.015625 -28.734375 C 28.054688 -29.578125 28.148438 -30.171875 28.296875 -30.515625 C 28.546875 -31.054688 28.785156 -31.378906 29.015625 -31.484375 Z M 16.390625 -27.953125 C 15.191406 -28.515625 14.09375 -28.367188 13.09375 -27.515625 C 12.726562 -27.179688 12.507812 -26.820312 12.4375 -26.4375 C 12.363281 -26.050781 12.472656 -25.703125 12.765625 -25.390625 C 13.078125 -25.078125 13.515625 -24.828125 14.078125 -24.640625 C 14.648438 -24.453125 15.132812 -24.429688 15.53125 -24.578125 C 15.925781 -24.691406 16.316406 -24.921875 16.703125 -25.265625 C 17.085938 -25.609375 17.320312 -25.9375 17.40625 -26.25 C 17.488281 -26.5625 17.429688 -26.878906 17.234375 -27.203125 C 17.035156 -27.523438 16.753906 -27.773438 16.390625 -27.953125 Z M 13.53125 -31.53125 C 14.582031 -31.820312 15.679688 -31.859375 16.828125 -31.640625 C 17.984375 -31.429688 18.945312 -30.984375 19.71875 -30.296875 C 20.507812 -29.554688 21.023438 -28.695312 21.265625 -27.71875 C 21.515625 -26.738281 21.46875 -25.769531 21.125 -24.8125 C 20.78125 -23.863281 20.179688 -23.085938 19.328125 -22.484375 C 18.554688 -21.921875 17.742188 -21.53125 16.890625 -21.3125 C 16.046875 -21.101562 15.082031 -21.023438 14 -21.078125 C 12.601562 -21.160156 11.46875 -21.453125 10.59375 -21.953125 C 9.726562 -22.453125 9.039062 -23.1875 8.53125 -24.15625 C 8.363281 -24.46875 8.300781 -25.035156 8.34375 -25.859375 C 8.382812 -26.679688 8.503906 -27.304688 8.703125 -27.734375 C 9.078125 -28.585938 9.695312 -29.347656 10.5625 -30.015625 C 11.425781 -30.679688 12.414062 -31.1875 13.53125 -31.53125 Z M 13.53125 -31.53125 "/></g></g></g></svg>